<?xml version="1.0" standalone="no"?>
<!DOCTYPE svg PUBLIC "-//W3C//DTD SVG 20010904//EN"
 "http://www.w3.org/TR/2001/REC-SVG-20010904/DTD/svg10.dtd">
<svg version="1.0" xmlns="http://www.w3.org/2000/svg"
 width="192.000000pt" height="192.000000pt" viewBox="0 0 192.000000 192.000000"
 preserveAspectRatio="xMidYMid meet">
<metadata>
Created by potrace 1.14, written by Peter Selinger 2001-2017
</metadata>
<g transform="translate(0.000000,192.000000) scale(0.100000,-0.100000)"
fill="#000000" stroke="none">
<path d="M390 1904 c25 -15 25 -15 2 -10 -20 4 -23 1 -19 -15 5 -17 -1 -19
-41 -20 -26 -1 -55 -1 -64 0 -14 2 -18 -5 -18 -28 0 -28 -3 -31 -30 -31 -28 0
-30 -3 -30 -35 0 -33 -2 -35 -35 -35 -32 0 -35 -2 -35 -30 0 -27 -3 -30 -29
-30 -29 0 -30 -1 -30 -56 0 -55 -18 -94 -44 -94 -6 0 -2 7 9 15 19 16 19 16
-1 13 -20 -3 -20 -12 -23 -572 -2 -457 0 -571 10 -578 7 -4 8 -8 2 -8 -6 0
-11 -7 -11 -15 0 -8 4 -15 9 -15 4 0 8 6 8 13 0 8 4 7 10 -3 5 -8 10 -11 10
-5 0 5 4 5 10 -1 5 -5 11 -38 12 -72 2 -61 3 -62 30 -62 24 0 28 -4 28 -30 0
-28 3 -30 35 -30 32 0 35 -2 35 -30 0 -27 3 -30 30 -30 27 0 30 -3 30 -30 l0
-30 63 -1 c34 -1 67 -1 72 1 6 1 4 -4 -3 -11 -18 -19 -15 -35 8 -36 11 -1 20
3 20 8 0 6 -4 7 -10 4 -6 -3 -10 -1 -10 4 0 16 20 13 26 -4 5 -13 76 -15 551
-15 385 0 542 3 538 11 -4 6 2 5 14 -3 28 -17 51 3 31 27 -7 9 -9 15 -4 14 5
-1 39 -1 77 0 l67 1 0 30 c0 27 3 30 30 30 27 0 30 3 30 30 0 27 3 30 30 30
27 0 30 3 30 30 0 29 10 36 48 31 9 -2 13 8 12 31 -4 72 0 98 15 98 8 0 15 6
15 13 0 8 4 7 10 -3 6 -10 9 199 7 580 -2 467 -5 595 -14 596 -7 1 -17 2 -23
3 -5 0 -10 28 -10 61 l0 60 -30 0 c-27 0 -30 3 -30 30 0 27 -3 30 -30 30 -28
0 -30 3 -30 35 0 32 -2 35 -30 35 -26 0 -30 3 -30 29 0 28 -1 28 -61 30 -65 2
-100 14 -98 34 0 9 2 9 6 0 2 -7 9 -13 14 -13 11 0 7 23 -6 32 -5 4 -273 7
-595 7 -524 0 -582 -2 -560 -15z m1130 -29 c14 -19 14 -19 -2 -6 -10 7 -18 18
-18 24 0 6 1 8 3 6 1 -2 9 -13 17 -24z m-1110 -5 c0 -5 -2 -10 -4 -10 -3 0 -8
5 -11 10 -3 6 -1 10 4 10 6 0 11 -4 11 -10z m1475 -339 c3 -5 2 -12 -3 -15 -5
-3 -9 1 -9 9 0 17 3 19 12 6z m-1840 -32 c11 -16 1 -19 -13 -3 -7 8 -8 14 -3
14 5 0 13 -5 16 -11z m1865 7 c0 -2 -6 -9 -14 -15 -11 -9 -16 -9 -22 0 -4 8
-3 9 4 5 7 -4 12 -2 12 3 0 6 5 11 10 11 6 0 10 -2 10 -4z m-1873 -1108 c-3
-8 -6 -5 -6 6 -1 11 2 17 5 13 3 -3 4 -12 1 -19z m1863 1 c0 -14 -17 -10 -23
5 -4 10 -1 13 9 9 7 -3 14 -9 14 -14z m-1796 -137 c3 -5 -1 -9 -9 -9 -8 0 -12
4 -9 9 3 4 7 8 9 8 2 0 6 -4 9 -8z m186 -166 c0 -2 -8 -10 -17 -17 -16 -13
-17 -12 -4 4 13 16 21 21 21 13z m145 -64 c-3 -3 -11 0 -18 7 -9 10 -8 11 6 5
10 -3 15 -9 12 -12z m1095 12 c0 -8 -19 -13 -24 -6 -3 5 1 9 9 9 8 0 15 -2 15
-3z m20 -18 c0 -3 -4 -8 -10 -11 -5 -3 -10 -1 -10 4 0 6 5 11 10 11 6 0 10 -2
10 -4z"/>
</g>
</svg>
